# AST/ASF file generated using VICON BodyLanguage
# -----------------------------------------------
:version 1.10
:name VICON
:units
  mass 1.0
  length 0.45
  angle deg
:documentation
   .ast/.asf automatically generated from VICON data using
   VICON BodyBuilder and BodyLanguage model FoxedUp or BRILLIANT.MOD
:root
   order TX TY TZ RX RY RZ
   axis XYZ
   position 0 0 0  
   orientation 0 0 0 
:bonedata
  begin
     id 1 
     name lhipjoint
     direction 0.61886 -0.69539 0.365302 
     length 2.20474 
     axis 0 0 0  XYZ
  end
  begin
     id 2 
     name lfemur
     direction 0.34202 -0.939693 0  
     length 6.65149  
     axis 0 0 20  XYZ
    dof rx ry rz
    limits (-160.0 20.0)
           (-70.0 70.0)
           (-60.0 70.0)
  end
  begin
     id 3 
     name ltibia
     direction 0.34202 -0.939693 0   
     length 6.35814   
     axis 0 0 20   XYZ
    dof rx
    limits (-10.0 170.0)
  end
  begin
     id 4 
     name lfoot
     direction 0.101224 -0.278109 0.955201   
     length 2.18766   
     axis -90 7.62852e-016 20   XYZ
    dof rx rz
    limits (-45.0 90.0)
           (-70.0 20.0)
  end
  begin
     id 5 
     name ltoes
     direction 1.53524e-011 -4.21877e-011 1   
     length 1.09206   
     axis -90 7.62852e-016 20   XYZ
    dof rx
    limits (-90.0 20.0)
  end
  begin
     id 6 
     name rhipjoint
     direction -0.600207 -0.708087 0.371972   
     length 2.1652  
     axis 0 0 0  XYZ 
  end
  begin
     id 7 
     name rfemur
     direction -0.34202 -0.939693 0   
     length 6.54691   
     axis 0 0 -20   XYZ
    dof rx ry rz
    limits (-160.0 20.0)
           (-70.0 70.0)
           (-70.0 60.0)
  end
  begin
     id 8 
     name rtibia
     direction -0.34202 -0.939693 0   
     length 6.37474   
     axis 0 0 -20   XYZ
    dof rx
    limits (-10.0 170.0)
 end
 begin
     id 9 
     name rfoot
     direction -0.111266 -0.3057 0.945604   
     length 2.00903  
     axis -90 -7.62852e-016 -20   XYZ
    dof rx rz
    limits (-45.0 90.0)
           (-20.0 70.0)
  end
  begin
     id 10 
     name rtoes
     direction -1.5362e-011 -4.21913e-011 1   
     length 1.00221   
     axis -90 -7.62852e-016 -20   XYZ
    dof rx
    limits (-90.0 20.0)
  end
  begin
     id 11 
     name lowerback
     direction -0.0224561 0.999731 -0.00577314   
     length 2.10409   
     axis 0 0 0   XYZ
    dof rx ry rz
    limits (-20.0 45.0)
           (-30.0 30.0)
           (-30.0 30.0)
  end
  begin
     id 12 
     name upperback
     direction 0.0213126 0.999185 -0.0342817   
     length 2.09783   
     axis 0 0 0   XYZ
    dof rx ry rz
    limits (-20.0 45.0)
           (-30.0 30.0)
           (-30.0 30.0)
  end
  begin
     id 13 
     name thorax
     direction 0.0312356 0.999036 -0.0308451   
     length 2.09788   
     axis 0 0 0   XYZ
    dof rx ry rz
    limits (-20.0 45.0)
           (-30.0 30.0)
           (-30.0 30.0)
  end
  begin
     id 14 
     name lowerneck
     direction -0.0114419 0.996481 0.0830329   
     length 1.38575   
     axis 0 0 0   XYZ
    dof rx ry rz
    limits (-20.0 45.0)
           (-30.0 30.0)
           (-30.0 30.0)
  end
  begin
     id 15 
     name upperneck
     direction -0.0075675 0.996187 -0.0869092   
     length 1.39401   
     axis 0 0 0   XYZ
    dof rx ry rz
    limits (-20.0 45.0)
           (-30.0 30.0)
           (-30.0 30.0)
  end
  begin
     id 16
     name head
     direction -0.00222073 0.999264 -0.0382974  
     length 1.3964  
     axis 0 0 0   XYZ
    dof rx ry rz
    limits (-20.0 45.0)
           (-30.0 30.0)
           (-30.0 30.0)
  end
  begin
     id 17 
     name lclavicle
     direction 0.965962 0.222138 0.132556  
     length 2.81514  
     axis 0 0 0   XYZ
    dof ry rz
    limits (-20.0 10.0)
           (0.0 20.0)
  end
  begin
     id 18 
     name lhumerus
     direction 1 -4.48972e-011 7.03471e-018   
     length 4.47366   
     axis 180 -30 -90   XYZ
    dof rx ry rz
    limits (-60.0 90.0)
           (-90.0 90.0)
           (-90.0 90.0)
  end
  begin
     id 19
     name lradius
     direction 1 -4.48951e-011 -6.22192e-028   
     length 3.19948   
     axis 180 -30 -90   XYZ
    dof rx
    limits (-10.0 170.0)
  end
  begin
     id 20
     name lwrist
     direction 1 -4.48967e-011 -1.24264e-027   
     length 1.59974   
     axis 1.40095e-015 90 90   XYZ
    dof ry
    limits (-180.0 0.0)
 end
  begin
     id 21 
     name lhand
     direction 1 -4.4897e-011 -2.48528e-027   
     length 0.492667   
     axis 1.58582e-015 90 90   XYZ
    dof rx rz
    limits (-90.0 90.0)
           (-45.0 45.0)
  end
  begin
     id 22 
     name lfingers
     direction 1 -4.48996e-011 -4.97056e-027   
     length 0.397201   
     axis 3.17164e-015 90 90   XYZ
    dof rx
    limits (0.0 90.0)
  end
  begin
     id 23
     name lthumb
     direction 0.707107 -6.34981e-011 0.707107   
     length 0.570303   
     axis -90 45 2.85299e-015   XYZ
    dof rx rz
    limits (-45.0 45.0)
           (-45.0 45.0)
  end
  begin
     id 24 
     name rclavicle
     direction -0.961164 0.229034 0.153972   
     length 3.09348  
     axis 0 0 0   XYZ 
    dof ry rz
    limits (-10.0 20.0)
           (-20.0 0.0)
  end
  begin
     id 25 
     name rhumerus
     direction -1 -4.48971e-011 -9.06263e-028  
     length 4.3269   
     axis 180 30 90   XYZ
    dof rx ry rz
    limits (-90.0 60.0)
           (-90.0 90.0)
           (-90.0 90.0)
  end
  begin
     id 26 
     name rradius
     direction -1 -4.48953e-011 1.44659e-027   
     length 3.1896   
     axis 180 30 90   XYZ
    dof rx
    limits (-10.0 170.0)
  end
  begin
     id 27 
     name rwrist
     direction -1 -4.48988e-011 -1.24264e-027   
     length 1.5948   
     axis 1.40095e-015 -90 -90   XYZ
    dof ry
    limits (-180.0 0.0)
  end
  begin
     id 28
     name rhand
     direction -1 -4.49033e-011 -2.48528e-027   
     length 0.464496   
     axis 1.58582e-015 -90 -90   XYZ
    dof rx rz
    limits (-90.0 90.0)
           (-45.0 45.0)
  end
  begin
     id 29
     name rfingers
     direction -1 -4.48905e-011 -4.97056e-027   
     length 0.374489   
     axis 3.17164e-015 -90 -90   XYZ
    dof rx
    limits (0.0 90.0)
  end
  begin
     id 30
     name rthumb
     direction -0.707107 -6.34909e-011 0.707107   
     length 0.537693   
     axis -90 -45 -2.85299e-015   XYZ
    dof rx rz
    limits (-45.0 45.0)
           (-45.0 45.0)
  end
:hierarchy
  begin
    root lhipjoint rhipjoint lowerback
    lhipjoint lfemur
    lfemur ltibia
    ltibia lfoot
    lfoot ltoes
    rhipjoint rfemur
    rfemur rtibia
    rtibia rfoot
    rfoot rtoes
    lowerback upperback
    upperback thorax
    thorax lowerneck lclavicle rclavicle
    lowerneck upperneck
    upperneck head
    lclavicle lhumerus
    lhumerus lradius
    lradius lwrist
    lwrist lhand lthumb
    lhand lfingers
    rclavicle rhumerus
    rhumerus rradius
    rradius rwrist
    rwrist rhand rthumb
    rhand rfingers
  end

#!OML:ASF G:\acrobat\cartwheel_test 2\Patient 1\Session 2\acrobat4.ASF
:FULLY-SPECIFIED
:DEGREES
959
root 9.82619 15.3427 7.30847 119.518 165.654 314.677
lowerback 17.6532 -1.81402 6.65334
upperback -0.749794 -0.532722 4.94444
thorax -10.8212 -0.475699 1.81337
lowerneck -20.1118 -4.93375 0.632181
upperneck -8.68298 -7.58524 -5.87726
head 0.27878 -4.42927 -2.48708
rclavicle -1.97194e-013 5.725e-014
rhumerus 103.279 -38.1022 -80.468
rradius 19.262
rwrist 32.5069
rhand -43.6814 450.313
rfingers 7.12502
rthumb -16.5145 -600.37
lclavicle -1.97194e-013 5.725e-014
lhumerus -3.24196 30.9665 -30.9165
lradius 44.6662
lwrist -133.62
lhand -17.5649 -2.74392
lfingers 7.12502
lthumb 8.69024 27.0572
rfemur -83.2961 -30.022 -13.5312
rtibia 56.6342
rfoot -11.0256 -17.5781
rtoes -8.13981
lfemur -165.801 172.056 -173.263
ltibia 3.97569e-014
lfoot -12.5349 17.4782
ltoes 5.06299
960
root 9.91999 15.4523 7.01127 121.208 163.797 315.294
lowerback 18.1184 -1.72478 5.33765
upperback -0.891539 -0.674893 4.41654
thorax -11.232 -0.483179 2.03025
lowerneck -20.3722 -4.88135 0.356443
upperneck -8.32919 -7.40213 -5.75634
head 0.460648 -4.31771 -2.40994
rclavicle -3.65764e-014 6.36111e-014
rhumerus 102.93 -38.9541 -79.8826
rradius 19.7191
rwrist 31.3109
rhand -43.877 451.55
rfingers 7.12502
rthumb -16.7028 -599.149
lclavicle -3.65764e-014 6.36111e-014
lhumerus -4.49625 30.5501 -31.708
lradius 44.1733
lwrist -133.622
lhand -18.446 -3.24996
lfingers 7.12502
lthumb 7.83993 26.5847
rfemur -80.2901 -28.6672 -11.3514
rtibia 58.0516
rfoot -9.86377 -17.1627
rtoes -8.06869
lfemur -167.411 169.782 -170.734
ltibia -1.74931e-014
lfoot -12.8635 16.6541
ltoes 4.1369
961
root 10.008 15.5484 6.69864 122.772 161.775 316.043
lowerback 18.5019 -1.52567 3.60825
upperback -0.862315 -0.809552 3.87686
thorax -11.3924 -0.45958 2.45945
lowerneck -20.5663 -4.81192 0.39462
upperneck -8.34685 -7.30935 -5.97446
head 0.481118 -4.27986 -2.49272
rclavicle 1.95604e-013 2.54444e-014
rhumerus 101.663 -40.4431 -77.9143
rradius 20.4908
rwrist 28.9523
rhand -44.0402 452.767
rfingers 7.12502
rthumb -16.8599 -597.945
lclavicle 1.95604e-013 2.54444e-014
lhumerus -5.54423 30.7922 -32.1394
lradius 43.5417
lwrist -134.161
lhand -18.7223 -3.73984
lfingers 7.12502
lthumb 7.5732 26.1046
rfemur -75.612 -26.8615 -10.7752
rtibia 57.8543
rfoot -10.3656 -17.5242
rtoes -8.33442
lfemur -169.042 167.308 -168.645
ltibia 6.20208e-014
lfoot -14.9782 12.2215
ltoes 8.15223
962
root 10.0953 15.6505 6.4314 125.949 159.143 316.179
lowerback 16.51 -1.65945 1.69589
upperback -1.54037 -1.48356 3.45742
thorax -10.9528 -0.671721 3.20666
lowerneck -19.4229 -4.67902 0.00512496
upperneck -8.82711 -7.08955 -6.2607
head 0.146431 -4.13812 -2.44381
rclavicle 1.43125e-014 5.08889e-014
rhumerus 99.5881 -41.4892 -75.2988
rradius 21.2672
rwrist 26.5226
rhand -44.0008 453.468
rfingers 7.12502
rthumb -16.8219 -597.241
lclavicle 1.43125e-014 5.08889e-014
lhumerus -6.78037 30.5209 -32.5267
lradius 42.9647
lwrist -134.722
lhand -18.4088 -4.29061
lfingers 7.12502
lthumb 7.87578 25.5427
rfemur -71.2162 -26.1262 -10.9312
rtibia 55.9885
rfoot -8.8368 -18.1874
rtoes -5.44002
lfemur -173.678 163.701 -167.571
ltibia 1.11319e-014
lfoot -14.0495 8.70485
ltoes 6.58787
963
root 10.1792 15.7064 6.1553 126.036 156.209 315.695
lowerback 17.3984 -2.04666 -0.136171
upperback -1.40037 -2.40463 2.95683
thorax -11.212 -1.00614 3.97356
lowerneck -18.0805 -4.47075 -0.31285
upperneck -9.86442 -6.84702 -6.54916
head -0.404197 -3.98079 -2.3921
rclavicle -3.18055e-015 2.22639e-014
rhumerus 98.2822 -42.5386 -73.7253
rradius 22.0145
rwrist 24.9137
rhand -43.8114 453.946
rfingers 7.12502
rthumb -16.6397 -596.747
lclavicle -3.18055e-015 2.22639e-014
lhumerus -8.16095 30.4874 -32.9093
lradius 42.3004
lwrist -134.802
lhand -18.3978 -4.50364
lfingers 7.12502
lthumb 7.88636 25.3293
rfemur -62.6455 -23.895 -12.8479
rtibia 53.2382
rfoot -8.55973 -18.5321
rtoes -4.51632
lfemur -175.691 162.295 -165.975
ltibia 4.45278e-014
lfoot -14.013 4.36583
ltoes 7.00468
